<svg version="1" xmlns="http://www.w3.org/2000/svg" width="416" height="416" viewBox="0 0 312 312"><path d="M214.5 32.8l-29 16.7-.5 34.9-.5 34.9-28 16.4c-15.4 8.9-28.6 16.3-29.2 16.3-.9 0-1.3-1.8-1.3-5.8 0-3.1-.1-31.9-.2-63.8-.1-32-.4-59.8-.6-61.8-.4-3.1-.7-3.6-2.4-3-1.1.3-14.5 7.9-29.9 16.7L65 50.5v103.6c0 81.7.3 103.9 1.3 104.7 1.6 1.4 41.3 24.5 50.5 29.5 4 2.1 7.6 3.6 8 3.2.4-.4.8-15.8.9-34.3.3-31.2.4-33.8 2.1-35.2 1.8-1.5 11.2-7 40.4-23.6 12.6-7.2 14.4-8 15.6-6.6.9 1.2 1.2 9.4 1.2 33.3v31.7l3.1 2.6c1.7 1.4 4.1 2.9 5.5 3.2 1.3.3 2.4 1 2.4 1.4 0 .4.8 1 1.8 1.3.9.4 3.5 1.7 5.7 3 11.1 6.8 37.3 21.5 39.1 22.1 1.8.5 2.2.2 2.8-2.5.8-4.1.8-266.6 0-269.7-.4-1.2-.9-2.2-1.3-2.2s-13.7 7.5-29.6 16.8z"/></svg>