<?xml version="1.0" standalone="no"?>
<!DOCTYPE svg PUBLIC "-//W3C//DTD SVG 20010904//EN"
 "http://www.w3.org/TR/2001/REC-SVG-20010904/DTD/svg10.dtd">
<svg version="1.0" xmlns="http://www.w3.org/2000/svg"
 width="374.000000pt" height="374.000000pt" viewBox="0 0 374.000000 374.000000"
 preserveAspectRatio="xMidYMid meet">
<metadata>
Created by potrace 1.11, written by Peter Selinger 2001-2013
</metadata>
<g transform="translate(0.000000,374.000000) scale(0.100000,-0.100000)"
fill="#000000" stroke="none">
<path d="M2745 3396 c-49 -29 -182 -106 -295 -171 -113 -65 -225 -130 -250
-145 l-45 -27 -5 -403 -5 -403 -275 -161 c-151 -89 -301 -176 -332 -194 l-58
-32 0 779 c0 661 -2 780 -14 790 -15 12 -61 -13 -526 -284 -69 -40 -137 -79
-152 -86 l-28 -12 0 -1197 c0 -1126 1 -1199 18 -1218 9 -12 98 -68 197 -125
213 -122 443 -256 468 -271 14 -8 20 -8 27 4 6 9 10 179 10 415 l1 400 322
185 c177 102 327 186 334 188 10 3 13 -74 13 -385 0 -296 3 -393 12 -405 7 -9
56 -41 108 -71 52 -30 202 -116 332 -191 131 -75 242 -136 248 -136 7 0 10
270 10 813 0 446 2 1160 5 1584 6 748 4 813 -23 813 -4 0 -47 -24 -97 -54z"/>
</g>
</svg>
