<?xml version="1.0" standalone="no"?>
<!DOCTYPE svg PUBLIC "-//W3C//DTD SVG 20010904//EN"
 "http://www.w3.org/TR/2001/REC-SVG-20010904/DTD/svg10.dtd">
<svg version="1.0" xmlns="http://www.w3.org/2000/svg"
 width="312.000000pt" height="312.000000pt" viewBox="0 0 312.000000 312.000000"
 preserveAspectRatio="xMidYMid meet">
<metadata>
Created by potrace 1.11, written by Peter Selinger 2001-2013
</metadata>
<g transform="translate(0.000000,312.000000) scale(0.100000,-0.100000)"
fill="#000000" stroke="none">
<path d="M2145 2792 l-290 -167 -5 -349 -5 -349 -280 -164 c-154 -89 -286
-163 -292 -163 -9 0 -13 18 -13 58 0 31 -1 319 -2 638 -1 320 -4 598 -6 618
-4 31 -7 36 -24 30 -11 -3 -145 -79 -299 -167 l-279 -162 0 -1036 c0 -817 3
-1039 13 -1047 16 -14 413 -245 505 -295 40 -21 76 -36 80 -32 4 4 8 158 9
343 3 312 4 338 21 352 18 15 112 70 404 236 126 72 144 80 156 66 9 -12 12
-94 12 -333 l0 -317 31 -26 c17 -14 41 -29 55 -32 13 -3 24 -10 24 -14 0 -4 8
-10 18 -13 9 -4 35 -17 57 -30 111 -68 373 -215 391 -221 18 -5 22 -2 28 25 8
41 8 2666 0 2697 -4 12 -9 22 -13 22 -4 0 -137 -75 -296 -168z"/>
</g>
</svg>
